<?xml version="1.0" encoding="UTF-8"?>
<svg version="1.1" xmlns="http://www.w3.org/2000/svg" width="500" height="500">
<path d="M0 0 C0.90045044 -0.00705963 1.80090088 -0.01411926 2.7286377 -0.02139282 C40.56271231 -0.2507174 40.56271231 -0.2507174 57.20703125 3.203125 C58.69759033 3.50911621 58.69759033 3.50911621 60.21826172 3.82128906 C82.220508 8.47437301 102.98300327 15.38050853 123.20703125 25.203125 C123.92810059 25.55068848 124.64916992 25.89825195 125.39208984 26.25634766 C183.08785103 54.41594201 228.273258 107.04791745 249.3125 167.4375 C256.90979679 190.17968485 262.28374061 213.92910166 262.41015625 237.99609375 C262.41721588 238.89654419 262.42427551 239.79699463 262.43154907 240.72473145 C262.66087365 278.55880606 262.66087365 278.55880606 259.20703125 295.203125 C258.90104004 296.69368408 258.90104004 296.69368408 258.58886719 298.21435547 C253.93578324 320.21660175 247.02964772 340.97909702 237.20703125 361.203125 C236.85946777 361.92419434 236.5119043 362.64526367 236.15380859 363.38818359 C207.99421424 421.08394478 155.3622388 466.26935175 94.97265625 487.30859375 C72.2304714 494.90589054 48.48105459 500.27983436 24.4140625 500.40625 C23.06338684 500.41683945 23.06338684 500.41683945 21.6854248 500.42764282 C-16.14864981 500.6569674 -16.14864981 500.6569674 -32.79296875 497.203125 C-34.28352783 496.89713379 -34.28352783 496.89713379 -35.80419922 496.58496094 C-57.8064455 491.93187699 -78.56894077 485.02574147 -98.79296875 475.203125 C-99.51403809 474.85556152 -100.23510742 474.50799805 -100.97802734 474.14990234 C-158.67378853 445.99030799 -203.8591955 393.35833255 -224.8984375 332.96875 C-232.49573429 310.22656515 -237.86967811 286.47714834 -237.99609375 262.41015625 C-238.00315338 261.50970581 -238.01021301 260.60925537 -238.01748657 259.68151855 C-238.24681115 221.84744394 -238.24681115 221.84744394 -234.79296875 205.203125 C-234.48697754 203.71256592 -234.48697754 203.71256592 -234.17480469 202.19189453 C-229.52172074 180.18964825 -222.61558522 159.42715298 -212.79296875 139.203125 C-212.44540527 138.48205566 -212.0978418 137.76098633 -211.73974609 137.01806641 C-183.58015174 79.32230522 -130.9481763 34.13689825 -70.55859375 13.09765625 C-47.8164089 5.50035946 -24.06699209 0.12641564 0 0 Z " fill="#FEFEFE" transform="translate(237.79296875,-0.203125)"/>
<path d="M0 0 C9.9 0 19.8 0 30 0 C32.67438127 5.56608797 35.34530402 11.1335808 38.0078125 16.70532227 C38.91372454 18.59851666 39.82157893 20.49078295 40.73144531 22.38208008 C42.04228766 25.10774297 43.34600565 27.83671638 44.6484375 30.56640625 C45.25635635 31.82463951 45.25635635 31.82463951 45.8765564 33.10829163 C48.05196479 37.68689339 49.76923199 42.07981708 51 47 C51.66 47 52.32 47 53 47 C53.38502686 45.75561157 53.38502686 45.75561157 53.77783203 44.48608398 C55.14110221 40.59752327 56.79303453 36.94286749 58.5546875 33.22265625 C58.89750763 32.49308212 59.24032776 31.763508 59.59353638 31.01182556 C60.3164136 29.4756165 61.04096187 27.94019277 61.76708984 26.40551758 C62.86896435 24.07526423 63.96414871 21.74195346 65.05859375 19.40820312 C65.76522578 17.90866598 66.47224446 16.40931095 67.1796875 14.91015625 C67.50274872 14.22139908 67.82580994 13.53264191 68.15866089 12.82301331 C68.47223541 12.16220261 68.78580994 11.50139191 69.10888672 10.82055664 C69.37821014 10.2501918 69.64753357 9.67982697 69.92501831 9.09217834 C71.51125683 6.00496866 73.27796069 3.01356879 75 0 C84.57 0 94.14 0 104 0 C104 1.98 104 3.96 104 6 C103.43410156 6.12117187 102.86820312 6.24234375 102.28515625 6.3671875 C101.55167969 6.53476563 100.81820312 6.70234375 100.0625 6.875 C99.33160156 7.03742188 98.60070312 7.19984375 97.84765625 7.3671875 C95.79299706 7.82961523 95.79299706 7.82961523 95 10 C94.89941943 11.67924675 94.86164584 13.36243567 94.85473633 15.04467773 C94.84835648 16.09594345 94.84197662 17.14720917 94.83540344 18.23033142 C94.83429062 19.36990799 94.8331778 20.50948456 94.83203125 21.68359375 C94.82870285 22.85003922 94.82537445 24.01648468 94.82194519 25.21827698 C94.81687516 27.68888962 94.81453689 30.15950912 94.81469727 32.63012695 C94.81251111 36.41824579 94.79435682 40.20607338 94.77539062 43.99414062 C94.77245672 46.390624 94.7704719 48.78710876 94.76953125 51.18359375 C94.75875298 52.88992226 94.75875298 52.88992226 94.74775696 54.63072205 C94.7523719 56.21234886 94.7523719 56.21234886 94.75708008 57.82592773 C94.75565506 58.7547728 94.75423004 59.68361786 94.75276184 60.64060974 C94.84330742 63.2686728 94.84330742 63.2686728 97 66 C100.56769552 66.73606499 100.56769552 66.73606499 104 67 C104 68.98 104 70.96 104 73 C91.13 73 78.26 73 65 73 C65 71.02 65 69.04 65 67 C66.670625 66.5978125 66.670625 66.5978125 68.375 66.1875 C72.21840951 65.34190981 72.21840951 65.34190981 74 62 C74.28868253 59.88032351 74.28868253 59.88032351 74.22705078 57.52856445 C74.22689972 56.62785721 74.22674866 55.72714996 74.22659302 54.79914856 C74.21627045 53.83031235 74.20594788 52.86147614 74.1953125 51.86328125 C74.19106766 50.37141548 74.19106766 50.37141548 74.18673706 48.84941101 C74.17553489 45.6703187 74.15043014 42.49150728 74.125 39.3125 C74.11497025 37.15820719 74.10584439 35.00390997 74.09765625 32.84960938 C74.07559546 27.56631028 74.04211756 22.28317521 74 17 C73.55803787 17.96915344 73.55803787 17.96915344 73.10714722 18.95788574 C64.86342522 37.0313777 56.45405622 55.02418747 48 73 C46.35 73 44.7 73 43 73 C42.67427002 72.29319092 42.34854004 71.58638184 42.01293945 70.8581543 C33.84556781 53.15434697 25.51159012 35.54107566 17 18 C16.95048901 23.74746449 16.9142277 29.49480427 16.89013672 35.24243164 C16.88009147 37.19688073 16.86645283 39.15131484 16.84912109 41.10571289 C16.82480797 43.91816917 16.81350203 46.73042639 16.8046875 49.54296875 C16.79436493 50.41398727 16.78404236 51.2850058 16.77340698 52.18241882 C16.77260694 56.527729 16.81821972 60.10506127 19 64 C20.91313095 65.22698662 20.91313095 65.22698662 23.125 65.8125 C23.84945312 66.04582031 24.57390625 66.27914062 25.3203125 66.51953125 C25.87460938 66.67808594 26.42890625 66.83664063 27 67 C27 68.98 27 70.96 27 73 C18.42 73 9.84 73 1 73 C1 71.02 1 69.04 1 67 C1.94875 66.566875 2.8975 66.13375 3.875 65.6875 C7.20041937 64.20697799 7.20041937 64.20697799 9 61 C9.30987285 58.6584636 9.30987285 58.6584636 9.2746582 56.02539062 C9.28419022 55.01424194 9.29372223 54.00309326 9.30354309 52.96130371 C9.30217598 51.32530212 9.30217598 51.32530212 9.30078125 49.65625 C9.30506638 48.53561157 9.3093515 47.41497314 9.31376648 46.26037598 C9.31951215 43.88989946 9.32000831 41.5194053 9.31567383 39.14892578 C9.31251248 35.51434405 9.33597586 31.88057488 9.36132812 28.24609375 C9.36360087 25.94531353 9.36430473 23.64453111 9.36328125 21.34375 C9.372491 20.25308228 9.38170074 19.16241455 9.39118958 18.03869629 C9.38184639 16.52197327 9.38184639 16.52197327 9.37231445 14.97460938 C9.37294388 14.0843103 9.3735733 13.19401123 9.3742218 12.2767334 C8.91983694 9.51229483 8.23715913 8.64462309 6 7 C2.89160979 6.2730774 2.89160979 6.2730774 0 6 C0 4.02 0 2.04 0 0 Z " fill="#04225A" transform="translate(158,174)"/>
<path d="M0 0 C2.31 0 4.62 0 7 0 C10.30163928 6.33131797 12.99385089 12.78935992 15.58984375 19.4375 C16.46525218 21.65374168 17.34091087 23.86988452 18.21679688 26.0859375 C19.58025402 29.54726664 20.94122887 33.00952332 22.29760742 36.47363281 C23.61720628 39.83938615 24.94663313 43.20112727 26.27734375 46.5625 C26.67646469 47.58980225 27.07558563 48.61710449 27.48680115 49.67553711 C31.24234194 60.08815476 31.24234194 60.08815476 38.8125 67.5 C39.534375 67.665 40.25625 67.83 41 68 C41 69.98 41 71.96 41 74 C29.12 74 17.24 74 5 74 C5 72.02 5 70.04 5 68 C7.31 67.67 9.62 67.34 12 67 C11.690625 65.783125 11.38125 64.56625 11.0625 63.3125 C10.27445845 60.21286992 9.62906018 57.14530088 9 54 C1.41 54 -6.18 54 -14 54 C-16.07801893 60.3566392 -16.07801893 60.3566392 -15 66 C-13.02 66.66 -11.04 67.32 -9 68 C-9 69.98 -9 71.96 -9 74 C-16.92 74 -24.84 74 -33 74 C-33 72.02 -33 70.04 -33 68 C-32.07791748 67.62286865 -31.15583496 67.2457373 -30.20581055 66.85717773 C-26.43065758 64.67017076 -25.54959435 63.19263497 -23.70703125 59.28515625 C-23.42301956 58.68558609 -23.13900787 58.08601593 -22.84638977 57.46827698 C-18.31917042 47.66619011 -14.56380499 37.50834632 -10.6875 27.4375 C-9.86976855 25.32723053 -9.05141333 23.21720266 -8.23242188 21.10742188 C-6.44140695 16.4916379 -4.65631738 11.87361375 -2.87675476 7.25340271 C-1.93353712 4.82917957 -0.96953659 2.41380398 0 0 Z " fill="#05225A" transform="translate(223,300)"/>
<path d="M0 0 C1.38709561 0.89904345 2.73176599 1.86320915 4.0625 2.84375 C4.3925 0.86375 4.7225 -1.11625 5.0625 -3.15625 C7.3725 -3.15625 9.6825 -3.15625 12.0625 -3.15625 C12.0625 5.75375 12.0625 14.66375 12.0625 23.84375 C10.0825 23.84375 8.1025 23.84375 6.0625 23.84375 C5.82015625 23.19148438 5.5778125 22.53921875 5.328125 21.8671875 C2.31417806 14.00774125 -0.32188248 8.12753486 -7.9375 3.84375 C-13.75716102 2.03265217 -19.80297685 1.81601663 -25.3125 4.46875 C-30.64492107 9.29332144 -33.55724027 14.77497088 -34.22802734 21.95239258 C-34.27734077 25.52072296 -34.30880378 29.08755392 -34.3125 32.65625 C-34.33699219 33.88923828 -34.36148437 35.12222656 -34.38671875 36.39257812 C-34.41410504 44.9416661 -33.45256884 51.55975986 -27.9375 58.28125 C-22.92523366 62.19708308 -18.53348476 62.39685801 -12.26953125 62.27734375 C-7.01963714 61.59418051 -3.61771542 59.60079664 0.0625 55.84375 C3.39034684 51.25671787 5.52525405 46.29398566 7.0625 40.84375 C9.0425 40.84375 11.0225 40.84375 13.0625 40.84375 C13.0625 49.75375 13.0625 58.66375 13.0625 67.84375 C11.0825 67.84375 9.1025 67.84375 7.0625 67.84375 C6.4025 66.19375 5.7425 64.54375 5.0625 62.84375 C2.56876667 63.77346939 0.29899807 64.69191272 -1.9453125 66.1328125 C-10.75380409 71.69093819 -22.17698381 71.33589846 -32.10546875 69.14453125 C-34.57129048 68.23848513 -36.69143678 67.20074653 -38.9375 65.84375 C-39.63875 65.44285156 -40.34 65.04195313 -41.0625 64.62890625 C-48.14932393 59.99831107 -53.53084179 51.93057781 -55.9375 43.84375 C-56.2460736 40.58987133 -56.26208063 37.36035168 -56.25 34.09375 C-56.26611328 33.2378125 -56.28222656 32.381875 -56.29882812 31.5 C-56.30686388 20.89280775 -52.77589269 12.90426508 -45.9375 4.84375 C-33.31931948 -7.38174855 -14.89170506 -8.88698528 0 0 Z " fill="#05235B" transform="translate(326.9375,178.15625)"/>
<path d="M0 0 C1.38709561 0.89904345 2.73176599 1.86320915 4.0625 2.84375 C4.3925 0.86375 4.7225 -1.11625 5.0625 -3.15625 C7.3725 -3.15625 9.6825 -3.15625 12.0625 -3.15625 C12.0625 5.75375 12.0625 14.66375 12.0625 23.84375 C10.0825 23.84375 8.1025 23.84375 6.0625 23.84375 C5.82015625 23.19148438 5.5778125 22.53921875 5.328125 21.8671875 C2.31417806 14.00774125 -0.32188248 8.12753486 -7.9375 3.84375 C-13.75716102 2.03265217 -19.80297685 1.81601663 -25.3125 4.46875 C-30.64492107 9.29332144 -33.55724027 14.77497088 -34.22802734 21.95239258 C-34.27734077 25.52072296 -34.30880378 29.08755392 -34.3125 32.65625 C-34.33699219 33.88923828 -34.36148438 35.12222656 -34.38671875 36.39257812 C-34.41410504 44.9416661 -33.45256884 51.55975986 -27.9375 58.28125 C-22.92523366 62.19708308 -18.53348476 62.39685801 -12.26953125 62.27734375 C-7.01963714 61.59418051 -3.61771542 59.60079664 0.0625 55.84375 C3.39034684 51.25671787 5.52525405 46.29398566 7.0625 40.84375 C9.0425 40.84375 11.0225 40.84375 13.0625 40.84375 C13.0625 49.75375 13.0625 58.66375 13.0625 67.84375 C11.0825 67.84375 9.1025 67.84375 7.0625 67.84375 C6.4025 66.19375 5.7425 64.54375 5.0625 62.84375 C2.56876667 63.77346939 0.29899807 64.69191272 -1.9453125 66.1328125 C-10.75380409 71.69093819 -22.17698381 71.33589846 -32.10546875 69.14453125 C-34.57129048 68.23848513 -36.69143678 67.20074653 -38.9375 65.84375 C-39.63875 65.44285156 -40.34 65.04195313 -41.0625 64.62890625 C-48.14932393 59.99831107 -53.53084179 51.93057781 -55.9375 43.84375 C-56.2460736 40.58987133 -56.26208063 37.36035168 -56.25 34.09375 C-56.26611328 33.2378125 -56.28222656 32.381875 -56.29882812 31.5 C-56.30686388 20.89280775 -52.77589269 12.90426508 -45.9375 4.84375 C-33.31931948 -7.38174855 -14.89170506 -8.88698528 0 0 Z " fill="#05235B" transform="translate(135.9375,178.15625)"/>
<path d="M0 0 C12.87 0 25.74 0 39 0 C39 1.98 39 3.96 39 6 C36.69 6.66 34.38 7.32 32 8 C32.43716276 15.09626985 35.39394972 20.97155722 38.3125 27.375 C38.79912109 28.46039063 39.28574219 29.54578125 39.78710938 30.6640625 C40.73937026 32.78646361 41.69514744 34.90729128 42.65478516 37.02636719 C44.45636625 41.0088096 46.23066152 45.00315077 48 49 C49.81568983 44.81948674 51.63043923 40.63856698 53.44433594 36.45727539 C54.06094238 35.03626604 54.67780118 33.61536617 55.29492188 32.19458008 C56.18426556 30.14693795 57.07268716 28.09889786 57.9609375 26.05078125 C58.23497406 25.4203743 58.50901062 24.78996735 58.79135132 24.14045715 C62.18363322 16.84389008 62.18363322 16.84389008 63 9 C60.69 8.01 58.38 7.02 56 6 C56 4.02 56 2.04 56 0 C64.25 0 72.5 0 81 0 C81 1.98 81 3.96 81 6 C79.88625 6.226875 78.7725 6.45375 77.625 6.6875 C73.89132627 7.56040536 73.89132627 7.56040536 72.93481445 10.22314453 C72.4720813 11.59768799 72.4720813 11.59768799 72 13 C71.14922263 14.9184833 70.28760735 16.83217991 69.41796875 18.7421875 C68.90395508 19.87688477 68.38994141 21.01158203 67.86035156 22.18066406 C67.45145691 23.08322937 67.45145691 23.08322937 67.03430176 24.00402832 C61.13978058 37.02771667 55.51033983 50.1468386 50.05151367 63.35888672 C49.78644516 63.99831207 49.52137665 64.63773743 49.24827576 65.29653931 C48.53004118 67.03038508 47.81519786 68.76563456 47.10058594 70.50097656 C46 73 46 73 45 74 C42.66702567 74.04092937 40.33294775 74.04241723 38 74 C36.32802504 70.41912276 34.66309021 66.83501181 33 63.25 C32.47398193 62.11796143 31.94796387 60.98592285 31.40600586 59.81958008 C28.12317428 52.72744379 24.93424183 45.59983042 21.81640625 38.43359375 C21.10361223 36.80236664 20.39072174 35.17118167 19.67773438 33.54003906 C18.62199127 31.12384849 17.570526 28.70623019 16.53198242 26.28259277 C15.55378243 24.00016552 14.56138264 21.72437241 13.56640625 19.44921875 C13.28027969 18.76999863 12.99415314 18.0907785 12.69935608 17.39097595 C10.78640166 13.06197129 8.60637415 10.06579493 5 7 C2.32209104 6.12761142 2.32209104 6.12761142 0 6 C0 4.02 0 2.04 0 0 Z " fill="#05235A" transform="translate(345,174)"/>
<path d="M0 0 C12.87 0 25.74 0 39 0 C39 1.98 39 3.96 39 6 C38.43410156 6.12117188 37.86820312 6.24234375 37.28515625 6.3671875 C36.55167969 6.53476562 35.81820312 6.70234375 35.0625 6.875 C34.33160156 7.03742188 33.60070312 7.19984375 32.84765625 7.3671875 C30.79299706 7.82961523 30.79299706 7.82961523 30 10 C29.89941943 11.67924675 29.86164584 13.36243567 29.85473633 15.04467773 C29.84835648 16.09594345 29.84197662 17.14720917 29.83540344 18.23033142 C29.83429062 19.36990799 29.8331778 20.50948456 29.83203125 21.68359375 C29.82870285 22.85003922 29.82537445 24.01648468 29.82194519 25.21827698 C29.81687516 27.68888962 29.81453689 30.15950912 29.81469727 32.63012695 C29.81251111 36.41824579 29.79435682 40.20607338 29.77539062 43.99414062 C29.77245672 46.390624 29.7704719 48.78710876 29.76953125 51.18359375 C29.76234573 52.32114609 29.75516022 53.45869843 29.74775696 54.63072205 C29.75083359 55.68513992 29.75391022 56.7395578 29.75708008 57.82592773 C29.75565506 58.7547728 29.75423004 59.68361786 29.75276184 60.64060974 C29.84330742 63.2686728 29.84330742 63.2686728 32 66 C35.06556598 66.73343428 35.06556598 66.73343428 38 67 C38 68.98 38 70.96 38 73 C25.46 73 12.92 73 0 73 C0 71.02 0 69.04 0 67 C1.11375 66.7525 2.2275 66.505 3.375 66.25 C6.97649363 65.41120322 6.97649363 65.41120322 8.20840454 63.2331543 C9.10637576 60.69990546 9.26691379 58.70592441 9.29052734 56.01953125 C9.30328705 55.03170654 9.31604675 54.04388184 9.32919312 53.02612305 C9.33141876 51.96562744 9.33364441 50.90513184 9.3359375 49.8125 C9.3425943 48.71784424 9.3492511 47.62318848 9.35610962 46.49536133 C9.36622963 44.182146 9.37092684 41.86890151 9.37060547 39.55566406 C9.3749837 36.01318496 9.41132573 32.4719466 9.44921875 28.9296875 C9.45508593 26.68229593 9.45905598 24.43489844 9.4609375 22.1875 C9.47530853 21.12700439 9.48967957 20.06650879 9.50448608 18.97387695 C9.56658951 13.30110208 9.56658951 13.30110208 7.14306641 8.34765625 C4.74018976 6.83661967 2.8091295 6.3121255 0 6 C0 4.02 0 2.04 0 0 Z " fill="#05235A" transform="translate(265,301)"/>
<path d="M0 0 C0.66 0 1.32 0 2 0 C3.33912585 3.12254943 4.67030658 6.24842358 6 9.375 C6.3815625 10.26445312 6.763125 11.15390625 7.15625 12.0703125 C7.69765625 13.34648437 7.69765625 13.34648437 8.25 14.6484375 C8.58515625 15.43395996 8.9203125 16.21948242 9.265625 17.02880859 C10 19 10 19 10 21 C4.39 21 -1.22 21 -7 21 C-6.33577702 17.67888508 -5.76292144 15.08168801 -4.58984375 12.01171875 C-4.32236328 11.30595703 -4.05488281 10.60019531 -3.77929688 9.87304688 C-3.50150391 9.15181641 -3.22371094 8.43058594 -2.9375 7.6875 C-2.51500977 6.57665039 -2.51500977 6.57665039 -2.08398438 5.44335938 C-1.39281425 3.62757345 -0.69688311 1.81360101 0 0 Z " fill="#F1F2F5" transform="translate(219,327)"/>
<path d="M0 0 C1.90793081 1.59084775 2.91069342 2.45905668 3.32279968 4.95524597 C3.29837296 5.69470963 3.27394623 6.43417328 3.2487793 7.19604492 C3.22853195 8.03668991 3.20828461 8.8773349 3.18742371 9.74345398 C3.15006607 10.64666885 3.11270844 11.54988373 3.07421875 12.48046875 C3.04777786 13.40845779 3.02133698 14.33644684 2.99409485 15.29255676 C2.90628355 18.25818877 2.79715105 21.22260291 2.6875 24.1875 C2.62424626 26.1972219 2.56238004 28.20698799 2.50195312 30.21679688 C2.35073471 35.14518847 2.18039041 40.07259339 2 45 C-0.06037303 41.90944045 -0.24799242 41.29073838 -0.22705078 37.80395508 C-0.22689972 36.96331009 -0.22674866 36.1226651 -0.22659302 35.25654602 C-0.21627045 34.35333115 -0.20594788 33.45011627 -0.1953125 32.51953125 C-0.1924826 31.59154221 -0.18965271 30.66355316 -0.18673706 29.70744324 C-0.17553836 26.74233121 -0.15043435 23.77752079 -0.125 20.8125 C-0.1149698 18.80273874 -0.10584402 16.79297274 -0.09765625 14.78320312 C-0.07560004 9.85535247 -0.04107229 4.92772738 0 0 Z " fill="#B8C1CF" transform="translate(174,191)"/>
<path d="M0 0 C0.66 0.33 1.32 0.66 2 1 C-1.3 4.3 -4.6 7.6 -8 11 C-8.66 10.67 -9.32 10.34 -10 10 C-3.84965831 2.51708428 -3.84965831 2.51708428 0 0 Z " fill="#223E6E" transform="translate(287,178)"/>
<path d="M0 0 C0.66 0.33 1.32 0.66 2 1 C-1.3 4.3 -4.6 7.6 -8 11 C-8.66 10.67 -9.32 10.34 -10 10 C-3.84965831 2.51708428 -3.84965831 2.51708428 0 0 Z " fill="#223E6E" transform="translate(96,178)"/>
</svg>
